Coordinates
version=1
nRows=14
nColumns=36
inDegrees=yes

Units are S.I. units (second, meters, Newtons, ...)
If the header above contains a line with 'inDegrees', this indicates whether rotational values are in degrees (yes) or radians (no).

endheader
time	pelvis_tilt	pelvis_list	pelvis_rotation	pelvis_tx	pelvis_ty	pelvis_tz	hip_flexion_r	hip_adduction_r	hip_rotation_r	knee_angle_r	knee_angle_r_beta	ankle_angle_r	subtalar_angle_r	mtp_angle_r	hip_flexion_l	hip_adduction_l	hip_rotation_l	knee_angle_l	knee_angle_l_beta	ankle_angle_l	subtalar_angle_l	mtp_angle_l	lumbar_extension	lumbar_bending	lumbar_rotation	arm_flex_r	arm_add_r	arm_rot_r	elbow_flex_r	pro_sup_r	arm_flex_l	arm_add_l	arm_rot_l	elbow_flex_l	pro_sup_l
      0.00000000	      5.99467967	     -2.80376148	     -2.10695888	     -0.90858220	      1.27368546	     -0.08333207	     -9.50353225	      1.30858826	      1.59429500	      3.97091854	      0.06930560	      3.45974385	     -3.33354921	     -6.72178498	    -11.15933265	     -3.34591671	     -1.25674147	      2.95199215	      0.05152198	      7.71288173	     -3.03937937	     -6.72178498	    -13.44510673	      1.80050022	     -2.56247635	      9.57648499	     -4.12999922	     28.67325753	     18.00987170	     67.84065759	      4.99130341	     -5.48285012	     25.49924261	     16.87087325	     60.86321469
      0.00416670	      4.88348835	     -2.51174561	     -1.81823186	     -0.90751279	      1.27087214	     -0.08352703	     -8.85144201	      1.40803588	      3.04085855	      3.06638938	      0.05351859	      4.15516445	     -1.81489189	     -6.79612270	    -10.46398980	     -2.90376022	     -0.36513419	      1.85042575	      0.03229602	      6.55442567	     -2.24863712	     -6.79612270	    -11.59706447	      1.46178039	     -2.65075186	      8.78210572	     -3.90439379	     28.00073052	     18.32525134	     67.33111952	      4.62990098	     -5.24969180	     25.03297159	     17.26772043	     60.81388074
      0.00833330	      3.36801822	     -1.95341535	     -2.00735116	     -0.90601211	      1.27109565	     -0.08301429	     -7.46861605	      0.91635200	      1.94548270	      2.47420406	      0.04318301	      4.53481761	     -0.31548694	     -7.24290976	     -8.98474286	     -2.30340163	     -0.77002455	      1.59529434	      0.02784314	      6.09808782	     -1.53906985	     -7.24290976	     -9.73000819	      0.60750473	     -2.23481250	      7.66681988	     -2.64112794	     18.12085358	     18.09711904	     80.09907181	      4.77694823	     -4.91311475	     21.91658525	     15.93150447	     67.06735573
      0.01250000	      3.44170109	     -1.79151382	     -1.92802677	     -0.90687724	      1.26903620	     -0.08250195	     -7.71395207	      0.71724388	      2.00955757	      1.97003869	      0.03438366	      4.78109362	      0.01178517	     -7.31340723	     -9.31169662	     -2.06504534	     -0.76659871	      1.00730280	      0.01758075	      5.89171100	     -1.49965117	     -7.31340723	    -10.00853304	      0.30703431	     -2.13596257	      7.37875570	     -2.26242160	     16.76555028	     18.52917469	     76.71342178	      4.88496945	     -4.87769975	     20.67855758	     16.10777180	     65.57004636
      0.01666670	      3.28457573	     -1.73142384	     -1.94635949	     -0.90708972	      1.26797199	     -0.08173805	     -7.68967806	      0.69392825	      2.09725614	      1.65815694	      0.02894030	      4.75805088	     -0.22978948	     -7.37418680	     -9.22794999	     -1.98501354	     -0.94395712	      0.73137435	      0.01276489	      6.26725758	     -0.81754938	     -7.37418680	    -10.03447796	      0.18413306	     -1.86724478	      7.02509697	     -1.96225985	     15.24966380	     19.18611618	     73.27598349	      4.88850045	     -4.76848957	     19.14422520	     16.49539782	     64.10067716
      0.02083330	      3.12286959	     -1.64136824	     -1.89165650	     -0.90877032	      1.27065460	     -0.08337714	     -7.49794600	      0.58192118	      1.98071147	      1.63918396	      0.02860916	      5.14114055	      0.13084282	     -7.45059048	     -9.03093054	     -1.86846228	     -0.34431138	      0.66100719	      0.01153675	      6.37349222	     -1.15142014	     -7.45059048	    -10.06589001	      0.11422389	     -1.75692451	      6.88990785	     -1.51012586	     10.02171822	     19.42631471	     84.86287628	      4.94236830	     -4.37123266	     14.35255970	     16.52830217	     69.70157281
      0.02500000	      3.06887764	     -1.60709821	     -1.88439026	     -0.90777132	      1.26892278	     -0.08188314	     -7.49062639	      0.57247866	      2.35092092	      1.50961878	      0.02634782	      4.89509068	     -0.67277618	     -7.46949870	     -8.96452470	     -1.84802755	      0.19410457	      0.60594709	      0.01057577	      6.49325932	     -1.37068768	     -7.46949870	    -10.19129003	      0.07609990	     -1.58271097	      6.85560652	     -1.38128788	     10.00659382	     19.65006291	     79.23121966	      5.04753456	     -4.24155878	     13.58996654	     16.85398394	     66.86542504
      0.02916670	      3.01300410	     -1.55724832	     -1.88895861	     -0.90527964	      1.27085174	     -0.08226188	     -7.54502481	      0.51949548	      2.21899387	      1.45425075	      0.02538146	      4.91026671	     -0.25646832	     -7.49305304	     -8.98566480	     -1.79821911	      0.13796523	      0.56164336	      0.00980253	      6.58748747	     -0.71195153	     -7.49305304	    -10.12571146	      0.03009891	     -1.58927447	      7.09220059	     -1.54026954	     11.03290154	     19.31721128	     83.39080290	      5.00996481	     -4.06115287	     12.32606046	     16.79176979	     69.46778681
      0.03333330	      2.94104149	     -1.52355737	     -1.89744973	     -0.90615960	      1.27197511	     -0.08212068	     -7.51661797	      0.46938227	      2.26952822	      1.37967482	      0.02407987	      4.85643927	     -0.22169479	     -7.49306825	     -8.98120089	     -1.76449669	      0.29491138	      0.53834266	      0.00939585	      6.53641714	     -0.60745179	     -7.49306825	    -10.11551082	     -0.00371619	     -1.57664105	      7.13758320	     -1.49014851	     11.05889119	     19.32264341	     83.39382965	      5.10787952	     -3.96513457	     12.32241506	     16.83031512	     69.46711533
      0.03750000	      2.94601151	     -1.51721170	     -1.88620263	     -0.90637707	      1.26922028	     -0.08129708	     -7.60305725	      0.48406816	      2.35473532	      1.23264790	      0.02151376	      4.61539497	     -0.45145616	     -7.49362715	     -9.02806317	     -1.77840622	      0.47483776	      0.52412227	      0.00914766	      6.54031016	     -0.32145160	     -7.49362715	    -10.13281236	     -0.04877161	     -1.55018760	      7.17556469	     -1.59365937	     11.79878797	     19.20881431	     83.24931267	      5.19562289	     -3.87481569	     11.96840627	     16.79639689	     69.26939437
      0.04166670	      2.88355422	     -1.52559865	     -1.88934809	     -0.90936083	      1.27287026	     -0.08361839	     -7.51765554	      0.44354930	      2.23454900	      1.19222600	      0.02080827	      4.53703997	     -0.49556219	     -7.49363778	     -8.95334785	     -1.76196044	      0.45500136	      0.51041910	      0.00890849	      6.51996099	     -0.32834308	     -7.49363778	    -10.16322302	     -0.03102695	     -1.57162398	      7.33766122	     -1.62289950	     11.81493167	     19.23260687	     83.25161525	      5.38294147	     -3.77180097	     11.96748028	     16.84922366	     69.26831368
      0.04583330	      2.92069818	     -1.54873458	     -1.77990015	     -0.91017685	      1.27182953	     -0.08345799	     -7.52124628	      0.46015175	      2.11870387	      1.13237908	      0.01976374	      4.15670016	     -0.81691458	     -7.49478394	     -8.91078921	     -1.78564924	      0.69674286	      0.52662463	      0.00919133	      6.29633062	     -0.64012683	     -7.49478394	    -10.44971313	      0.02539143	     -1.67517767	      7.58681737	     -1.77793099	     12.99888966	     19.11597141	     82.04957498	      5.68789282	     -3.67588487	     11.78111834	     16.76073514	     68.53428877
      0.05000000	      2.91631674	     -1.54461360	     -1.78856663	     -0.90842074	      1.27191840	     -0.08205594	     -7.54760135	      0.46232697	      2.11749099	      1.13771310	      0.01985684	      4.15394770	     -0.81656650	     -7.49478426	     -8.89425840	     -1.80249720	      0.70024956	      0.56937107	      0.00993740	      6.29467777	     -0.63765047	     -7.49478426	    -10.45024605	      0.02328259	     -1.67987301	      7.59311697	     -1.78343692	     12.99879095	     19.11644834	     82.04975941	      5.69848561	     -3.66884702	     11.78159346	     16.76417125	     68.53439663
      0.05416670	      2.82207978	     -1.61823196	     -1.72291908	     -0.90939484	      1.27262084	     -0.08328355	     -7.43935229	      0.55070955	      2.02861090	      1.05176665	      0.01835679	      3.97071398	     -0.80742479	     -7.49480178	     -8.76302804	     -1.90824157	      0.80737384	      0.52592285	      0.00917909	      6.19001197	     -0.51898531	     -7.49480178	    -10.58703139	      0.13211436	     -1.69333665	      7.80481293	     -1.91064708	     13.02928866	     19.12815687	     82.07217849	      5.98052588	     -3.56217153	     11.78068750	     16.83630020	     68.53384936
